<svg width="512" height="512" viewBox="0 0 512 512" fill="none" xmlns="http://www.w3.org/2000/svg">
  <rect width="512" height="512" rx="256" fill="#0789B2"/>
  <circle cx="256" cy="256" r="232" stroke="#02121A" stroke-width="18"/>
  <circle cx="256" cy="256" r="170" fill="#02121A"/>
  <path d="M256 86L278 211H234L256 86Z" fill="#0789B2"/>
  <path d="M218 214L140 137L235 219L218 214Z" fill="#0789B2"/>
  <path d="M294 214L372 137L277 219L294 214Z" fill="#0789B2"/>
  <path d="M202 250L102 268H198L202 250Z" fill="#0789B2"/>
  <path d="M310 250L410 268H314L310 250Z" fill="#0789B2"/>
  <path d="M219 256C219 235.6 235.6 219 256 219C276.4 219 293 235.6 293 256H219Z" fill="#0789B2"/>
  <path d="M102 282H410V292C383 371 321 427 256 427C191 427 129 371 102 292V282Z" fill="#0789B2"/>
  <path d="M215 307C232 301 248 303 253 312V360C241 354 228 354 215 360V307Z" fill="#02121A"/>
  <path d="M297 307C280 301 264 303 259 312V360C271 354 284 354 297 360V307Z" fill="#02121A"/>
</svg>
